<svg version="1.1" xmlns="http://www.w3.org/2000/svg" viewBox="420 620 1220 810">
<path fill="rgb(43,108,217)" d="M 1052.26 650.731 C 1126.59 653.374 1222.15 659.653 1282 708.287 C 1291.5 715.617 1308.68 730.048 1315.7 739.871 C 1318.36 742.995 1320.85 745.87 1323.65 748.874 L 1326.08 749.008 C 1332.35 738.956 1351.33 721.324 1360.27 713.619 C 1388.05 691.05 1407.33 682.752 1440.16 670.678 L 1440.56 669.325 L 1444.19 667.996 C 1448.15 660.53 1453.88 658.403 1461.85 660.643 L 1461.99 661.927 L 1457.76 662.136 C 1459.37 663.492 1458.83 663.083 1460.83 663.905 C 1464.87 662.709 1465.78 662.861 1470.09 662.828 C 1488.64 660.623 1587.19 645.412 1597.63 652.178 L 1598.28 656.688 C 1601.96 663.001 1601.55 667.211 1602.08 674.511 C 1603.39 673.059 1603.14 673.081 1603.98 671.214 C 1610.84 676.159 1604.32 701.237 1603.92 709.198 C 1603.58 780.025 1579.41 848.932 1528.49 899.346 C 1505.64 921.795 1479.01 940.039 1449.83 953.238 C 1480.39 1041.05 1479.62 1126.72 1438.24 1211.56 C 1399.09 1290.62 1329.92 1350.71 1246.16 1378.4 C 1226.97 1384.72 1207.28 1389.42 1187.3 1392.44 C 1136.94 1399.58 1059.96 1396.28 1013 1375.33 C 973.852 1363.66 925.776 1331.12 896.499 1301.95 C 827.387 1233.07 799.336 1154.95 797.695 1059.38 C 802.481 1057.13 1024.6 1057.9 1047.16 1058.03 C 1047.89 1066.42 1048.54 1074.83 1049.12 1083.24 C 1054.42 1109.58 1067.15 1136.91 1088.31 1154.19 C 1092.16 1155.93 1105.67 1160.4 1107.01 1161.97 C 1106.46 1164.26 1106.93 1163.6 1105.57 1165.28 L 1106.95 1165.45 C 1121.62 1167.39 1120.86 1171.9 1132.72 1178.68 C 1135.39 1180.21 1142.24 1180.34 1147.61 1182.82 L 1148.52 1184.45 L 1150.06 1184.96 C 1172.12 1187.91 1183.99 1187.14 1205.25 1181.2 C 1265.52 1159.94 1301.15 1103.57 1286.8 1040.01 C 1278.75 1005.29 1255.3 976.141 1223.11 960.839 C 1199.64 949.707 1186.69 948.46 1161.68 932.479 C 1106.02 896.481 1066.82 839.969 1052.6 775.228 C 1043.04 736.865 1043.11 701.404 1050.47 662.753 C 1051.01 658.813 1051.5 654.614 1052.26 650.731 z"/>
<path fill="rgb(42,105,202)" d="M 797.695 1059.38 C 802.481 1057.13 1024.6 1057.9 1047.16 1058.03 C 1047.89 1066.42 1048.54 1074.83 1049.12 1083.24 C 1045.11 1077.47 1047.05 1070.59 1044.87 1063.79 C 1044.09 1061.35 1037.87 1061.51 1035.23 1061.48 C 968.187 1060.7 901.019 1061.65 833.99 1060.98 C 825.969 1060.9 803.783 1061.06 797.695 1059.38 z"/>
<path fill="rgb(42,105,202)" d="M 1013 1375.33 C 1016.31 1374.08 1050.83 1384.86 1057.87 1386.37 C 1087.49 1392.7 1112.51 1393.46 1142.54 1393.28 C 1151.03 1393.22 1181.69 1391.06 1187.3 1392.44 C 1136.94 1399.58 1059.96 1396.28 1013 1375.33 z"/>
<path fill="rgb(37,89,184)" d="M 1050.47 662.753 C 1052.71 671.075 1045.83 706.455 1047.36 719.268 C 1048.05 725.021 1052.71 774.875 1052.6 775.228 C 1043.04 736.865 1043.11 701.404 1050.47 662.753 z"/>
<path fill="rgb(243,249,245)" d="M 1088.31 1154.19 C 1092.16 1155.93 1105.67 1160.4 1107.01 1161.97 C 1106.46 1164.26 1106.93 1163.6 1105.57 1165.28 L 1106.95 1165.45 C 1121.62 1167.39 1120.86 1171.9 1132.72 1178.68 C 1135.39 1180.21 1142.24 1180.34 1147.61 1182.82 L 1148.52 1184.45 C 1128.11 1180.87 1103.25 1168.92 1088.31 1154.19 z"/>
<path fill="rgb(42,105,202)" d="M 1360.27 713.619 C 1358.91 721.647 1334.23 746.056 1326.08 749.008 C 1332.35 738.956 1351.33 721.324 1360.27 713.619 z"/>
<path fill="rgb(243,249,245)" d="M 1598.28 656.688 C 1601.96 663.001 1601.55 667.211 1602.08 674.511 C 1603.39 673.059 1603.14 673.081 1603.98 671.214 C 1610.84 676.159 1604.32 701.237 1603.92 709.198 C 1601.94 691.311 1600.61 674.922 1598.28 656.688 z"/>
<path fill="rgb(243,249,245)" d="M 1440.16 670.678 L 1440.56 669.325 L 1444.19 667.996 C 1448.15 660.53 1453.88 658.403 1461.85 660.643 L 1461.99 661.927 L 1457.76 662.136 C 1459.37 663.492 1458.83 663.083 1460.83 663.905 C 1464.87 662.709 1465.78 662.861 1470.09 662.828 C 1463.38 664.645 1446.23 669.698 1440.16 670.678 z"/>
<path fill="rgb(255,255,255)" d="M 1112.75 721.838 C 1122.23 722.938 1131.7 724.131 1141.16 725.417 C 1205.15 734.703 1241.05 752.515 1279.37 804.004 C 1288.82 807.625 1295.21 820.402 1302.54 826.73 C 1304.02 828.005 1323.19 829.216 1326.12 829.483 C 1342.02 830.932 1343.47 831.796 1355.98 822.216 C 1358.53 820.469 1375.19 796.227 1378.64 791.817 C 1415.67 744.42 1465.17 730.893 1521.63 723.484 L 1536.27 721.991 C 1535.87 725.302 1535.26 732.349 1534.32 735.195 C 1531.73 757.28 1525.26 778.857 1516.35 799.238 C 1513.83 805.002 1505.88 818.416 1504.44 822.185 C 1504.6 836.967 1475.09 866.449 1462.24 867.543 C 1450.52 875.471 1441.5 880.671 1428.38 886.831 C 1402.72 898.884 1380.2 902.29 1373.65 934.008 C 1370.47 949.399 1382.14 971.134 1387.82 986.055 C 1390.63 993.548 1393.02 1001.19 1394.98 1008.94 C 1421.88 1111.96 1379.31 1218.03 1293.54 1279.55 C 1290.96 1281.41 1288.32 1283.21 1285.64 1284.93 L 1283.96 1286.15 C 1249.42 1306.86 1217.38 1319.2 1177.12 1324.94 C 1119.21 1333.19 1058.14 1325.4 1005.93 1298.25 C 988.442 1289.15 975.449 1279.58 959.94 1267.93 C 950.116 1267.4 948.064 1264.46 945.288 1255.23 C 933.783 1242.9 918.737 1226.58 910.367 1212.13 C 905.665 1207.64 896.432 1189.13 893.446 1182.67 C 887.692 1172.55 873.435 1136.24 874.289 1125.61 L 875 1124.4 C 881.596 1123.85 888.395 1123.86 895.021 1123.9 C 926.45 1124.09 958.146 1123.64 989.545 1124.85 L 990.181 1125.93 L 990.048 1126.15 C 1000.71 1153.78 1009.4 1170.01 1029.49 1192.74 L 1041.24 1204.76 C 1072.35 1232.3 1111.23 1249.52 1152.53 1254.07 C 1201.28 1258.96 1252.52 1241.93 1289.99 1210.81 C 1328.84 1178.87 1353.2 1132.64 1357.57 1082.54 C 1363.53 1013.34 1327.81 940.48 1267.21 907.328 C 1217.49 880.126 1196.85 886.32 1155.69 836.911 C 1150.31 830.609 1144.13 821.091 1139.48 814.047 C 1138.5 810.78 1131.07 798.085 1129.23 793.232 C 1120.14 769.284 1114.98 747.22 1112.75 721.838 z"/>
<path fill="rgb(42,105,202)" d="M 1279.37 804.004 C 1288.82 807.625 1295.21 820.402 1302.54 826.73 C 1304.02 828.005 1323.19 829.216 1326.12 829.483 C 1342.02 830.932 1343.47 831.796 1355.98 822.216 C 1348.45 837.11 1324.59 834.637 1310.65 832.849 C 1294.69 830.804 1287.69 816.228 1279.37 804.004 z"/>
<path fill="rgb(37,89,184)" d="M 874.289 1125.61 L 875 1124.4 C 881.596 1123.85 888.395 1123.86 895.021 1123.9 C 926.45 1124.09 958.146 1123.64 989.545 1124.85 L 990.181 1125.93 L 990.048 1126.15 C 952.719 1124.9 911.315 1127.65 874.289 1125.61 z"/>
<path fill="rgb(42,105,202)" d="M 1504.44 822.185 C 1504.6 836.967 1475.09 866.449 1462.24 867.543 L 1468.65 862.411 L 1470.91 860.601 C 1484.32 849.606 1494.48 836.182 1504.44 822.185 z"/>
<path fill="rgb(243,249,245)" d="M 1521.63 723.484 L 1536.27 721.991 C 1535.87 725.302 1535.26 732.349 1534.32 735.195 L 1533.97 734.894 C 1531.52 736.06 1530.36 735.526 1527.92 736.607 C 1522.21 730.026 1527.3 729.063 1525.71 724.323 L 1521.63 723.484 z"/>
<path fill="rgb(243,249,245)" d="M 1041.24 1204.76 C 1039.12 1205.31 1039.62 1205.59 1037.98 1205.08 L 1036.45 1204.59 C 1030.63 1202.76 1024.37 1201.64 1025.26 1194.57 C 1027.04 1192.87 1027.01 1193.07 1029.49 1192.74 L 1041.24 1204.76 z"/>
<path fill="rgb(243,249,245)" d="M 893.446 1182.67 C 896.422 1185.66 896.977 1185.88 901.094 1186.84 C 902.231 1189.13 902.768 1189.13 902.042 1191 C 899.723 1196.98 911.045 1204.5 910.367 1212.13 C 905.665 1207.64 896.432 1189.13 893.446 1182.67 z"/>
<path fill="rgb(42,105,202)" d="M 945.288 1255.23 C 950.108 1259.49 954.94 1263.89 959.94 1267.93 C 950.116 1267.4 948.064 1264.46 945.288 1255.23 z"/>
<path fill="rgb(243,249,245)" d="M 1468.65 862.411 C 1464.92 861.831 1464.03 861.631 1464.02 858.061 C 1466.54 855.588 1465.1 856.139 1468.31 855.977 C 1470.98 858.313 1470.04 856.882 1470.91 860.601 L 1468.65 862.411 z"/>
<path fill="rgb(243,249,245)" d="M 1283.96 1286.15 L 1280.88 1283.72 C 1281.86 1280.55 1283.11 1279.05 1286.31 1278.87 L 1287.25 1280.24 L 1285.64 1284.93 L 1283.96 1286.15 z"/>
<path fill="rgb(43,108,217)" d="M 445.194 651.853 L 730.328 651.728 C 772.475 651.745 823.944 650.247 865.225 651.689 C 866.871 680.51 865.828 719.043 865.82 748.716 L 865.764 922.224 L 1048.02 922.561 L 1048.08 991.25 L 827.528 991.058 C 768.161 991.042 707.391 990.326 648.126 991.114 L 647.974 922.169 C 695.18 922.349 750.333 923.911 796.98 922.12 C 798.69 904.55 796.988 877.412 797.544 858.658 L 797.042 855.628 C 789.681 856.482 774.769 856.089 766.898 856.073 L 712.889 856.024 L 530.09 855.989 C 530.443 835.266 531.54 807.439 530.263 787.251 L 791.096 787.077 C 789.658 785.464 789.649 785.457 788.676 783.529 L 791.85 782.51 C 793.349 776.061 793.121 731.216 792.384 722.892 C 790.26 721.204 786.858 721.472 783.361 720.708 L 781.385 720.267 C 743.612 717.723 454.55 724.256 445.329 719.163 L 445.222 700.277 C 445.113 684.136 445.104 667.994 445.194 651.853 z"/>
<path fill="rgb(42,105,202)" d="M 445.194 651.853 L 730.328 651.728 C 772.475 651.745 823.944 650.247 865.225 651.689 C 866.871 680.51 865.828 719.043 865.82 748.716 L 865.764 922.224 L 1048.02 922.561 L 1048.08 991.25 L 827.528 991.058 C 768.161 991.042 707.391 990.326 648.126 991.114 L 647.974 922.169 C 695.18 922.349 750.333 923.911 796.98 922.12 L 795.895 923.7 C 784.855 926.807 739.441 924.58 725.999 924.857 C 701.275 925.366 675.177 924.91 650.476 924.5 C 650.547 935.408 650.93 974.474 653.998 982.505 C 653.354 984.913 653.091 985.392 653.088 987.85 C 659.346 989.876 1045.38 988.113 1044.88 988.362 C 1047.69 980.058 1046.55 935.997 1046.51 924.683 C 1030.08 926.529 1000.47 925.235 980.607 926.553 L 981.34 926.775 C 964.273 928.258 929.015 927.964 911.497 927.094 C 933.368 927.132 955.19 927.31 977.045 926.477 C 947.551 925.213 917.918 926.523 888.425 925.259 C 880.367 924.913 871.458 924.827 863.583 923.247 C 862.041 920.54 863.588 881.205 863.585 874.033 L 863.503 733.964 C 863.489 709.788 862.612 676.918 864.141 653.49 L 447.459 654.365 C 447.474 660.494 448.204 697.32 446.468 700.671 L 445.222 700.277 C 445.113 684.136 445.104 667.994 445.194 651.853 z"/>
<path fill="rgb(42,105,202)" d="M 791.096 787.077 L 798.052 787.579 C 796.978 788.538 795.643 789.731 794.046 791.157 C 779.607 792.562 759.06 790.911 745.031 790.51 C 732.68 790.157 723.146 791.533 713.096 791.199 C 679.966 790.094 648.704 792.631 615.535 791.361 C 603.394 790.896 593.172 792.389 579.456 791.142 C 569.479 790.236 543.798 788.893 534.556 789.828 C 530.566 794.494 534.531 841.782 536.777 848.967 C 544.624 855.218 727.272 851.045 753.156 852.009 C 763.343 852.388 786.559 850.486 797.174 854.452 L 797.042 855.628 C 789.681 856.482 774.769 856.089 766.898 856.073 L 712.889 856.024 L 530.09 855.989 C 530.443 835.266 531.54 807.439 530.263 787.251 L 791.096 787.077 z"/>
<path fill="rgb(42,105,202)" d="M 445.329 719.163 C 452.075 717.619 468.121 718.26 475.587 718.414 C 555.394 720.055 635.059 712.56 714.829 718.142 C 716.593 718.265 717.414 718.122 719.062 717.654 C 738.44 713.369 759.51 717.186 779.267 716.544 C 783.995 716.391 794.579 716.53 798.272 718.893 L 797.883 719.54 C 793.647 720.315 785.951 720.194 781.385 720.267 C 743.612 717.723 454.55 724.256 445.329 719.163 z"/>
<path fill="rgb(243,249,245)" d="M 781.385 720.267 C 785.951 720.194 793.647 720.315 797.883 719.54 C 797.691 734.247 797.655 748.956 797.777 763.665 C 797.786 768.774 797.459 783.032 798.052 787.579 L 791.096 787.077 C 789.658 785.464 789.649 785.457 788.676 783.529 L 791.85 782.51 C 793.349 776.061 793.121 731.216 792.384 722.892 C 790.26 721.204 786.858 721.472 783.361 720.708 L 781.385 720.267 z"/>
<path fill="rgb(43,108,217)" d="M 445.078 1059.65 C 445.712 1059.2 446.346 1058.75 446.98 1058.29 C 465.907 1057.83 489.436 1058.01 507.831 1058.01 L 692.178 1058.04 L 692.283 1180.27 C 693.013 1185.11 693.013 1188.06 693.105 1192.89 C 715.075 1193 737.03 1192.96 759 1192.9 C 764.009 1192.89 775.413 1191.98 778.997 1194.55 L 778.976 1237.21 C 778.987 1242.14 779.188 1256.79 778.425 1261.08 C 773.497 1262.63 733.625 1262.06 725.724 1262.06 L 601.58 1261.95 L 601.728 1192.99 C 611.482 1193.06 638.865 1192.13 647.052 1193.51 C 647.37 1171.02 647.376 1148.53 647.072 1126.04 L 445.334 1126.17 L 445.078 1059.65 z"/>
<path fill="rgb(42,105,202)" d="M 647.052 1193.51 L 645.651 1194.47 C 638.443 1194.59 611.436 1194.73 605.921 1196.28 C 604.576 1199.58 605.513 1249.61 606.795 1254.2 C 620.179 1264.59 768.49 1255.07 778.425 1261.08 C 773.497 1262.63 733.625 1262.06 725.724 1262.06 L 601.58 1261.95 L 601.728 1192.99 C 611.482 1193.06 638.865 1192.13 647.052 1193.51 z"/>
<path fill="rgb(37,89,184)" d="M 445.078 1059.65 C 445.712 1059.2 446.346 1058.75 446.98 1058.29 C 465.907 1057.83 489.436 1058.01 507.831 1058.01 L 692.178 1058.04 L 692.283 1180.27 C 692.406 1179.38 691.644 1192.79 691.435 1191.53 C 688.821 1182.65 691.344 1160.9 689.83 1152.55 C 687.2 1138.06 693.362 1071.06 689.577 1061.1 C 683.035 1059.76 642.388 1060.39 633.522 1060.42 C 600.827 1060.52 568.447 1060.38 535.65 1059.76 C 509.113 1059.26 471.871 1062.35 446.029 1059.75 L 445.078 1059.65 z"/>
<path fill="rgb(42,105,202)" d="M 772.855 1195.66 L 775.264 1198.45 C 776.023 1202.39 775.594 1202.88 774.262 1206.85 C 772.437 1205.07 772.442 1204.79 771.202 1202.51 C 770.915 1198.7 771.064 1198.84 772.855 1195.66 z"/>
<path fill="rgb(43,108,217)" d="M 688.83 1327.99 L 839.108 1327.94 C 839.566 1350.47 839.236 1373.65 839.467 1396.29 C 820.71 1397.41 799.201 1396.97 780.256 1396.95 L 688.856 1396.79 C 689.298 1374.4 688.878 1350.49 688.83 1327.99 z"/>
</svg>
